<?xml version="1.0" encoding="UTF-8" standalone="no"?>
<!-- Created with Inkscape (http://www.inkscape.org/) -->

<svg
   xmlns:dc="http://purl.org/dc/elements/1.1/"
   xmlns:cc="http://creativecommons.org/ns#"
   xmlns:rdf="http://www.w3.org/1999/02/22-rdf-syntax-ns#"
   xmlns:svg="http://www.w3.org/2000/svg"
   xmlns="http://www.w3.org/2000/svg"
   xmlns:sodipodi="http://sodipodi.sourceforge.net/DTD/sodipodi-0.dtd"
   xmlns:inkscape="http://www.inkscape.org/namespaces/inkscape"
   width="128"
   height="128"
   viewBox="0 0 33.866666 33.866668"
   version="1.1"
   id="svg8"
   inkscape:version="0.92.4 (5da689c313, 2019-01-14)"
   sodipodi:docname="RMG.svg">
  <defs
     id="defs2" />
  <sodipodi:namedview
     id="base"
     pagecolor="#ffffff"
     bordercolor="#666666"
     borderopacity="1.0"
     inkscape:pageopacity="0.0"
     inkscape:pageshadow="2"
     inkscape:zoom="5.6"
     inkscape:cx="77.34694"
     inkscape:cy="69.214745"
     inkscape:document-units="px"
     inkscape:current-layer="layer1"
     showgrid="false"
     units="px"
     inkscape:window-width="1920"
     inkscape:window-height="1057"
     inkscape:window-x="-8"
     inkscape:window-y="-8"
     inkscape:window-maximized="1" />
  <metadata
     id="metadata5">
    <rdf:RDF>
      <cc:Work
         rdf:about="">
        <dc:format>image/svg+xml</dc:format>
        <dc:type
           rdf:resource="http://purl.org/dc/dcmitype/StillImage" />
        <dc:title></dc:title>
      </cc:Work>
    </rdf:RDF>
  </metadata>
  <g
     inkscape:label="Layer 1"
     inkscape:groupmode="layer"
     id="layer1"
     transform="translate(0,-263.13332)">
    <path
       style="fill:#F1C40F;stroke-width:0.26458335"
       d="m 4.8775299,289.4168 -2.9891986,-10.0936 4.1067206,-9.44298 9.4065661,-4.80201 10.130715,2.43042 6.24833,8.50604 -0.624515,10.26971 -7.211315,7.64128 -10.31875,1.22039 z m 18.4743151,3.1712 6.48713,-6.83278 0.420887,-9.525 -5.464461,-7.45346 -9.160887,-2.22875 -8.5917601,4.39054 -3.6593519,8.4216 2.7346669,9.20524 7.5080101,4.95864 z m -10.518967,-6.96462 -2.590474,-3.72647 0.488662,-4.81767 3.604082,-3.43879 4.847185,-0.21716 3.675452,2.80693 1.147194,4.5826 -2.021435,4.30052 -4.734098,1.8123 z m 7.948234,-1.70897 1.507174,-3.29309 -0.896109,-3.59735 -2.919933,-2.04135 -3.667193,0.20722 -2.64316,2.64316 -0.329817,3.53194 2.019893,3.11959 3.345991,0.85151 z"
       id="path40748"
       inkscape:connector-curvature="0"
       sodipodi:nodetypes="cccccccccccccccccccccccccccccccccccccccc" />
  </g>
</svg>
